<svg xmlns="http://www.w3.org/2000/svg" viewBox="0 0 184 167" width="184" height="167">
	<style>
		tspan { white-space:pre }
		.shp0 { fill: #4285f4 } 
		.shp1 { fill: #000000 } 
		.shp2 { fill: #ffffff } 
	</style>
	<g >
		<g >
			<g >
				<path class="shp0" d="M181.8 75.03L143.99 9.19C141.1 4.05 135.71 0.83 129.82 0.72L54.19 0.72C48.3 0.82 42.91 4.05 40.02 9.19L2.2 74.86C-0.73 79.96 -0.73 86.23 2.2 91.33L40.01 157.56C42.87 162.77 48.25 166.09 54.18 166.32L129.81 166.32C135.74 166.12 141.13 162.81 143.99 157.6L181.8 91.75C184.75 86.57 184.75 80.22 181.8 75.03Z" />
			</g>
			<g style="opacity: 0.071">
				<path class="shp1" d="M113.05 43.19L111.81 54.71L105.73 59.89L89.13 43.19L57.63 89.55L57.73 100.78L71.96 115.03L70.95 123.81L113.38 166.28L129.81 166.28C135.74 166.08 141.13 162.76 143.99 157.56L174.38 104.62L113.05 43.19Z" />
			</g>
			<g >
				<path class="shp2" d="M112.61 62.39L118.15 52.79L112.61 43.19L100.63 43.19L106.16 52.79L100.63 62.39L112.61 62.39Z" />
				<path class="shp2" d="M89.56 43.19L69.88 43.19L47.44 82.1L58.23 100.82L80.37 62.39L89.56 62.39L95.09 52.79L89.56 43.19Z" />
				<path class="shp2" d="M71.66 105.09L66.13 114.7L71.66 124.31L83.65 124.31L78.11 114.7L83.65 105.09L71.66 105.09Z" />
				<path class="shp2" d="M125.98 66.22L103.85 104.65L94.66 104.65L89.13 114.25L94.66 123.87L114.35 123.87L136.78 84.94L125.98 66.22Z" />
			</g>
		</g>
	</g>
</svg>